<svg xmlns="http://www.w3.org/2000/svg" viewBox="0 0 300 300" width="300" height="300" role="img" aria-label="Turbo History">
  <rect width="300" height="300" fill="#0d0b08"/>
  <defs>
    <path id="topArc" d="M 51,150 A 99,99 0 0 1 249,150"/>
    <path id="botArc" d="M 51,150 A 99,99 0 0 0 249,150"/>
  </defs>
  <circle cx="150" cy="150" r="128" fill="none" stroke="#c9a24b" stroke-width="1.6" opacity="0.5"/>
  <circle cx="150" cy="150" r="120" fill="none" stroke="#c9a24b" stroke-width="3.6"/>
  <circle cx="150" cy="150" r="72" fill="none" stroke="#c9a24b" stroke-width="1.6" opacity="0.7"/>
  <text text-anchor="middle" dominant-baseline="central" font-family="'Trebuchet MS',Arial,sans-serif" font-size="18" font-weight="700" letter-spacing="4.5" fill="#e9ddc6">
    <textPath href="#topArc" startOffset="50%">TURBO HISTORY</textPath>
  </text>
  <text text-anchor="middle" dominant-baseline="central" font-family="'Trebuchet MS',Arial,sans-serif" font-size="11.5" letter-spacing="3" fill="#9d907a">
    <textPath href="#botArc" startOffset="50%">READ IN UNDER AN HOUR</textPath>
  </text>
  <circle cx="51" cy="150" r="2.6" fill="#c9a24b"/>
  <circle cx="249" cy="150" r="2.6" fill="#c9a24b"/>
  <g transform="translate(150,150) scale(0.98)">
    <rect x="-32" y="-52" width="64" height="9" rx="4" fill="#c9a24b"/>
    <rect x="-32" y="43" width="64" height="9" rx="4" fill="#c9a24b"/>
    <path d="M-28,-45 L28,-45 L2,0 L28,45 L-28,45 L-2,0 Z" fill="none" stroke="#c9a24b" stroke-width="3.4" stroke-linejoin="round"/>
    <path d="M-22,-40 L22,-40 L2,-3 L-2,-3 Z" fill="#e9ddc6" opacity="0.9"/>
    <path d="M-17,45 L17,45 L0,26 Z" fill="#e9ddc6"/>
    <rect x="-0.8" y="0" width="1.6" height="20" fill="#e9ddc6" opacity="0.75"/>
  </g>
</svg>
